<?xml version="1.0" standalone="no"?><!DOCTYPE svg PUBLIC "-//W3C//DTD SVG 1.1//EN" "http://www.w3.org/Graphics/SVG/1.1/DTD/svg11.dtd"><svg t="1593429882561" class="icon" viewBox="0 0 1024 1024" version="1.1" xmlns="http://www.w3.org/2000/svg" p-id="2959" xmlns:xlink="http://www.w3.org/1999/xlink" width="200" height="200"><defs><style type="text/css"></style></defs><path d="M537.085781 132.782817c50.715515 3.039731 100.343126 16.382551 145.779108 39.196534 43.996109 21.918062 83.192643 52.251379 115.44579 89.336099a388.925604 388.925604 0 0 1 73.177529 126.42082c16.670526 47.323815 23.389931 97.175406 19.806248 149.394787-1.407875 27.1336-5.759491 53.403277-13.054845 78.841028a392.093324 392.093324 0 0 1-28.765456 72.665574 850.644771 850.644771 0 0 1-62.714454 102.902899 752.029492 752.029492 0 0 1-75.161353 90.360009 796.889525 796.889525 0 0 1-86.680334 76.8892 855.86031 855.86031 0 0 1-96.151497 63.09842l-1.567861 1.119901a8.351261 8.351261 0 0 1-4.63959 0.991912 12.606885 12.606885 0 0 1-6.7834-4.127635 12.062933 12.062933 0 0 1-2.14381-11.007027 8.223273 8.223273 0 0 1 1.567861-2.655765 279.015325 279.015325 0 0 0 29.277411-52.699339 232.299456 232.299456 0 0 0 15.71061-57.978873 4.959561 4.959561 0 0 0-1.631855-3.61568 4.799576 4.799576 0 0 0-3.615681-1.631855c-11.263004 1.375878-22.526008 2.271799-33.917 2.655765a211.149326 211.149326 0 0 1-33.948998-1.567862 376.190731 376.190731 0 0 1-145.811104-39.164536 375.326807 375.326807 0 0 1-115.413794-89.368097 388.285661 388.285661 0 0 1-73.177528-126.420819 369.663308 369.663308 0 0 1-19.838245-149.394788c1.407875-27.1336 5.759491-53.403277 13.054845-78.841028 7.295355-25.501745 16.894506-49.275642 28.797453-71.673661a827.446823 827.446823 0 0 1 62.682457-103.926809 771.323786 771.323786 0 0 1 75.129355-90.360009 803.448945 803.448945 0 0 1 86.744329-76.793208c30.717283-23.29394 62.714454-44.316081 96.119499-63.09842l1.631856-1.055907a7.775312 7.775312 0 0 1 4.63959-1.055906 12.478896 12.478896 0 0 1 6.751403 4.191629 10.911035 10.911035 0 0 1 2.655765 7.423343 10.687055 10.687055 0 0 1-0.511955 3.583684 6.879392 6.879392 0 0 1-1.535864 2.59177 276.199574 276.199574 0 0 0-29.309408 52.763334c-7.711318 18.462367-12.798868 37.756661-15.614619 57.946875 0 1.407875 0.511955 2.687762 1.535864 3.679675a4.959561 4.959561 0 0 0 3.61568 1.567861c11.167012-1.407875 22.494011-2.271799 33.917001-2.59177 11.614973-0.383966 22.877977 0.127989 34.044989 1.503867z m-34.428955 527.60134a141.651473 141.651473 0 0 0 107.542489-36.476774c30.717283-27.261589 47.323815-61.338575 50.171563-102.390945a143.251331 143.251331 0 0 0-36.508771-108.150435 140.467577 140.467577 0 0 0-102.390945-49.563617 143.315326 143.315326 0 0 0-108.118438 36.476774 140.851543 140.851543 0 0 0-49.659608 102.390945 144.243243 144.243243 0 0 0 36.092808 108.150436c26.781631 30.941264 61.082598 47.579792 102.870902 49.563616z" fill="#F56C2D" p-id="2960"></path></svg>