<?xml version="1.0" standalone="no"?><!DOCTYPE svg PUBLIC "-//W3C//DTD SVG 1.1//EN" "http://www.w3.org/Graphics/SVG/1.1/DTD/svg11.dtd"><svg t="1593422360489" class="icon" viewBox="0 0 1024 1024" version="1.1" xmlns="http://www.w3.org/2000/svg" p-id="4435" xmlns:xlink="http://www.w3.org/1999/xlink" width="200" height="200"><defs><style type="text/css"></style></defs><path d="M827.2384 703.3856c-13.7216 13.7216-41.216 34.3552-89.344 34.3552H442.3168c89.344-85.9136 164.9664-158.1056 171.8272-164.9664 6.912-6.8608 24.064-24.064 41.2672-37.7856 34.3552-30.9248 61.8496-34.3552 85.9136-34.3552 34.3552 0 61.8496 13.7216 85.9136 34.304 48.128 44.6976 48.128 123.7504 0 168.448z m58.4192-223.3856a192 192 0 0 0-140.9024-61.8496c-48.128 0-89.344 17.152-127.1808 44.6464-13.7216 13.7728-34.304 27.4944-51.5072 48.128-13.7728 13.7216-309.3504 302.4384-309.3504 302.4384 17.2032 3.4304 37.8368 3.4304 54.9888 3.4304h374.6304c27.4944 0 48.128 0 68.7104-3.4304a211.2 211.2 0 0 0 127.1808-54.9888c79.0528-75.6224 79.0528-202.752 3.4304-278.3744z" fill="#00A3FF" p-id="4436"></path><path d="M404.48 459.3664c-37.7856-27.4944-75.5712-41.216-120.2688-41.216A192 192 0 0 0 143.36 480a200.192 200.192 0 0 0 3.4304 281.8048c34.4064 30.9248 68.7616 48.128 109.9776 51.5584l79.0528-75.6224h-44.6464c-44.6976-3.4304-72.192-17.152-89.3952-34.3552a123.5456 123.5456 0 0 1-3.4304-171.8272c24.064-24.064 51.5584-34.4064 85.9136-34.4064 20.6336 0 51.5584 3.4816 82.4832 34.4064 13.7728 13.7216 51.5584 41.216 65.3312 54.9888h3.4304l51.5584-51.5584v-3.4304c-24.064-24.064-61.9008-54.9888-82.4832-72.192" fill="#00C8DC" p-id="4437"></path><path d="M765.3888 373.4528a268.1856 268.1856 0 0 0-250.88-175.2576c-134.0416 0-240.5888 99.6352-261.2224 223.3856 10.3424 0 20.6336-3.4304 34.3552-3.4304 13.7728 0 30.976 3.4304 44.6976 3.4304 17.2032-85.9136 92.7744-147.8144 182.1696-147.8144 75.5712 0 140.9024 44.6976 171.8272 109.9776 0 0 3.4304 3.4816 3.4304 0 24.064-3.4304 51.5584-10.2912 75.6224-10.2912 0 3.4304 0 3.4304 0 0" fill="#006EFF" p-id="4438"></path></svg>