<?xml version="1.0" standalone="no"?><!DOCTYPE svg PUBLIC "-//W3C//DTD SVG 1.1//EN" "http://www.w3.org/Graphics/SVG/1.1/DTD/svg11.dtd"><svg t="1593429975694" class="icon" viewBox="0 0 1024 1024" version="1.1" xmlns="http://www.w3.org/2000/svg" p-id="3624" xmlns:xlink="http://www.w3.org/1999/xlink" width="200" height="200"><defs><style type="text/css"></style></defs><path d="M880.21024161 690.31213001c-72.46372723 157.20944211-222.1923223 240.2803405-380.96492647 237.82394296C194.09374888 914.29092325 105.44012882 575.9779903 309.65608736 454.16300354l8.59739137 8.15077362c-3.34963301 4.13121403-15.4083118 13.0635687-34.94783763 49.35125955-22.21923224 43.54522899-28.91849822 87.20211242-26.57375512 113.55255868 16.18989283 236.14912647 360.42051074 283.82556948 480.11406325 50.13284054C888.80763296 355.34883005 487.18663634 30.4344291 131.00899406 278.75388879l-8.59739136-8.15077363c93.90137841-140.79624041 276.67968576-203.99264967 451.08391059-161.22900169C841.80111654 173.68706704 985.27706336 441.09943485 880.21024161 690.31213001m-285.27707713-4.80114062c-24.7872842 34.61287431-65.76446121 55.82721666-112.65932321 55.82721665-75.14343363 0-136.66502638-58.28361419-136.66502639-130.74734143 0-69.22574865 56.27383438-125.83454635 127.28605399-130.74734141 44.32681003-1.6748165 85.52729592 21.54930563 105.06682175 58.2836142 21.43765119 39.52566939 13.51018643 88.76527448-18.75794479 121.70333231 10.94213446 8.15077364 22.88915883 16.4132017 35.72941865 25.68051968M116.38226329 597.97391365c-6.81092043 51.80765706-2.56805198 68.33251319-2.56805197 74.92012476l-11.16544332 4.13121403c-4.13121403-8.15077364-16.18989283-38.63243393-21.4376512-78.93968436-13.51018643-154.75304458 96.46943038-293.65115961 264.95597026-320.00160587 153.85980912-21.54930563 300.68538891 70.0073297 335.63322655 198.29827355l-11.94702438 4.13121404c-3.34963301-3.23797857-10.16055343-13.84514972-33.38467555-37.06927186C449.67074673 264.12715803 158.36433023 346.30482095 116.38226329 597.97391365m900.93962243-86.30887694C1006.37975126 0.17607767 296.25755537-189.97142226 23.03915703 289.69602326 34.9861814 297.84679691 51.95765526 309.34720355 64.01633407 317.72128602c-19.53952583 40.08394157-34.1662566 82.84758952-42.76364796 127.50936286-5.24775835 28.91849822-7.59250148 57.50203317-8.59739135 86.30887695 0 265.84920572 224.76037426 480.44902656 502.22164105 480.44902656s502.55660435-214.93478414 502.55660433-480.44902656c0.89323546-6.47595714 0.89323546-13.28687757-0.11165442-19.87448912" fill="#1296db" p-id="3625"></path></svg>